AcariSans-Italic.ufo
<glyph name="twosuperior" format="2">
  <advance width="921"/>
  <unicode hex="00B2"/>
  <outline>
    <contour>
      <point x="790.152" y="932.284" type="line"/>
      <point x="814.216" y="1038.65" type="line"/>
      <point x="299.771" y="1038.65" type="line"/>
      <point x="518.407" y="1147.96"/>
      <point x="921.044" y="1427.47"/>
      <point x="920.968" y="1706.43" type="curve" smooth="yes"/>
      <point x="920.922" y="1849.25"/>
      <point x="812.182" y="1913.28"/>
      <point x="681.096" y="1913.28" type="curve" smooth="yes"/>
      <point x="492.646" y="1913.28"/>
      <point x="354.119" y="1770.59"/>
      <point x="310.307" y="1594.87" type="curve"/>
      <point x="416.125" y="1577.24" type="line"/>
      <point x="448.867" y="1693.64"/>
      <point x="531.365" y="1801.92"/>
      <point x="664.968" y="1801.92" type="curve" smooth="yes"/>
      <point x="746.632" y="1801.92"/>
      <point x="793.467" y="1762.75"/>
      <point x="793.48" y="1683.64" type="curve" smooth="yes"/>
      <point x="793.529" y="1443.29"/>
      <point x="327.765" y="1147.68"/>
      <point x="135.304" y="1044.16" type="curve"/>
      <point x="113.288" y="932.284" type="line"/>
    </contour>
  </outline>
</glyph>
<glyph name="threesuperior" format="2">
  <advance width="921"/>
  <unicode hex="00B3"/>
  <outline>
    <contour>
      <point x="557.452" y="913" type="curve" smooth="yes"/>
      <point x="765.58" y="913"/>
      <point x="965.516" y="1048.17"/>
      <point x="965.516" y="1271.4" type="curve" smooth="yes"/>
      <point x="965.516" y="1359.21"/>
      <point x="925.836" y="1419.11"/>
      <point x="845.452" y="1451.37" type="curve"/>
      <point x="951.436" y="1507.18"/>
      <point x="1022.35" y="1607.02"/>
      <point x="1022.35" y="1720.68" type="curve" smooth="yes"/>
      <point x="1022.35" y="1851.75"/>
      <point x="908.684" y="1919.08"/>
      <point x="784.524" y="1919.08" type="curve" smooth="yes"/>
      <point x="622.732" y="1919.08"/>
      <point x="482.7" y="1820.26"/>
      <point x="441.996" y="1660.52" type="curve"/>
      <point x="542.604" y="1642.6" type="line"/>
      <point x="567.18" y="1740.14"/>
      <point x="668.556" y="1805.93"/>
      <point x="766.092" y="1805.93" type="curve" smooth="yes"/>
      <point x="838.028" y="1805.93"/>
      <point x="903.052" y="1767.53"/>
      <point x="903.052" y="1695.34" type="curve" smooth="yes"/>
      <point x="903.052" y="1566.31"/>
      <point x="793.996" y="1501.8"/>
      <point x="679.564" y="1501.8" type="curve" smooth="yes"/>
      <point x="631.948" y="1501.8" type="line"/>
      <point x="608.14" y="1389.16" type="line"/>
      <point x="687.756" y="1389.16" type="line" smooth="yes"/>
      <point x="773.772" y="1389.16"/>
      <point x="851.852" y="1347.69"/>
      <point x="851.852" y="1261.67" type="curve" smooth="yes"/>
      <point x="851.852" y="1115.24"/>
      <point x="706.7" y="1023.34"/>
      <point x="572.3" y="1023.34" type="curve" smooth="yes"/>
      <point x="480.652" y="1023.34"/>
      <point x="393.1" y="1069.16"/>
      <point x="393.1" y="1165.93" type="curve" smooth="yes"/>
      <point x="393.1" y="1182.31"/>
      <point x="395.148" y="1198.44"/>
      <point x="398.988" y="1214.31" type="curve"/>
      <point x="283.276" y="1211.24" type="line"/>
      <point x="277.644" y="1186.41"/>
      <point x="273.548" y="1161.32"/>
      <point x="273.548" y="1135.98" type="curve" smooth="yes"/>
      <point x="273.548" y="977.512"/>
      <point x="413.324" y="913"/>
    </contour>
  </outline>
</glyph>
<glyph name="circumflexcomb" format="2">
  <unicode hex="0302"/>
  <anchor x="-283" y="1203" name="_top"/>
  <outline>
    <contour>
      <point x="88.51" y="1191.94" type="line"/>
      <point x="-162.626" y="1553.15" type="line"/>
      <point x="-578.114" y="1191.94" type="line"/>
      <point x="-408.386" y="1191.94" type="line"/>
      <point x="-194.114" y="1378.82" type="line"/>
      <point x="-70.978" y="1191.94" type="line"/>
    </contour>
  </outline>
</glyph>
<glyph name="four.superior" format="2">
  <advance width="921"/>
  <unicode hex="2074"/>
  <outline>
    <contour>
      <point x="751.7" y="932.2" type="line"/>
      <point x="811.092" y="1186.41" type="line"/>
      <point x="965.46" y="1186.41" type="line"/>
      <point x="988.244" y="1294.95" type="line"/>
      <point x="836.948" y="1294.95" type="line"/>
      <point x="980.308" y="1899.88" type="line"/>
      <point x="870.74" y="1899.88" type="line"/>
      <point x="252.244" y="1257.83" type="line"/>
      <point x="237.652" y="1186.41" type="line"/>
      <point x="688.468" y="1186.41" type="line"/>
      <point x="629.076" y="932.2" type="line"/>
    </contour>
    <contour>
      <point x="714.324" y="1294.95" type="line"/>
      <point x="406.1" y="1294.95" type="line"/>
      <point x="815.7" y="1725.03" type="line"/>
    </contour>
  </outline>
</glyph>
<glyph name="five.superior" format="2">
  <advance width="921"/>
  <unicode hex="2075"/>
  <outline>
    <contour>
      <point x="549.592" y="918.888" type="curve" smooth="yes"/>
      <point x="761.406" y="918.888"/>
      <point x="966.572" y="1110.25"/>
      <point x="966.616" y="1324.39" type="curve" smooth="yes"/>
      <point x="966.648" y="1474.08"/>
      <point x="863.018" y="1570.41"/>
      <point x="715.736" y="1570.41" type="curve" smooth="yes"/>
      <point x="639.704" y="1570.41"/>
      <point x="573.144" y="1548.9"/>
      <point x="515.032" y="1500.26" type="curve"/>
      <point x="636.12" y="1789.8" type="line"/>
      <point x="1042.65" y="1789.8" type="line"/>
      <point x="1065.43" y="1899.88" type="line"/>
      <point x="570.072" y="1899.88" type="line"/>
      <point x="368.6" y="1406.31" type="line"/>
      <point x="463.064" y="1361" type="line"/>
      <point x="518.36" y="1425.51"/>
      <point x="599.256" y="1463.66"/>
      <point x="683.48" y="1463.66" type="curve" smooth="yes"/>
      <point x="782.552" y="1463.66"/>
      <point x="842.724" y="1412.2"/>
      <point x="842.712" y="1315.94" type="curve" smooth="yes"/>
      <point x="842.69" y="1168.33"/>
      <point x="709.43" y="1028.2"/>
      <point x="561.368" y="1028.2" type="curve" smooth="yes"/>
      <point x="459.498" y="1028.2"/>
      <point x="398.04" y="1113.55"/>
      <point x="398.04" y="1222.25" type="curve"/>
      <point x="283.864" y="1193.06" type="line"/>
      <point x="283.886" y="1038.68"/>
      <point x="399.165" y="918.888"/>
    </contour>
  </outline>
</glyph>
<glyph name="six.superior" format="2">
  <advance width="921"/>
  <unicode hex="2076"/>
  <outline>
    <contour>
      <point x="550.556" y="918.888" type="curve" smooth="yes"/>
      <point x="755.397" y="918.888"/>
      <point x="965.17" y="1103.32"/>
      <point x="964.764" y="1313.64" type="curve" smooth="yes"/>
      <point x="964.46" y="1472.13"/>
      <point x="843.904" y="1559.49"/>
      <point x="693.424" y="1559.53" type="curve" smooth="yes"/>
      <point x="646.124" y="1559.54"/>
      <point x="625.402" y="1557.21"/>
      <point x="576.107" y="1546.48" type="curve"/>
      <point x="564.3" y="1489.92" type="line"/>
      <point x="916.124" y="1899.88" type="line"/>
      <point x="781.98" y="1899.88" type="line"/>
      <point x="376.22" y="1412.71" type="line" smooth="yes"/>
      <point x="318.39" y="1343.38"/>
      <point x="282.271" y="1259.88"/>
      <point x="282.268" y="1173.35" type="curve" smooth="yes"/>
      <point x="282.262" y="1018.96"/>
      <point x="400.265" y="918.888"/>
    </contour>
    <contour>
      <point x="566.94" y="1032.04" type="curve" smooth="yes"/>
      <point x="474.031" y="1032.04"/>
      <point x="403.356" y="1097.98"/>
      <point x="403.356" y="1192.04" type="curve"/>
      <point x="405.808" y="1332.86"/>
      <point x="539.327" y="1454.22"/>
      <point x="678.556" y="1454.18" type="curve" smooth="yes"/>
      <point x="772.62" y="1454.16"/>
      <point x="843.711" y="1397.48"/>
      <point x="843.676" y="1300.84" type="curve" smooth="yes"/>
      <point x="843.623" y="1162.21"/>
      <point x="703.111" y="1032.04"/>
    </contour>
  </outline>
</glyph>
<glyph name="seven.superior" format="2">
  <advance width="921"/>
  <unicode hex="2077"/>
  <outline>
    <contour>
      <point x="468.664" y="932.2" type="line"/>
      <point x="1096.38" y="1837.42" type="line"/>
      <point x="1109.18" y="1899.88" type="line"/>
      <point x="460.472" y="1899.88" type="line"/>
      <point x="437.688" y="1789.54" type="line"/>
      <point x="951.992" y="1789.54" type="line"/>
      <point x="340.152" y="932.2" type="line"/>
    </contour>
  </outline>
</glyph>
<glyph name="eight.superior" format="2">
  <advance width="921"/>
  <unicode hex="2078"/>
  <outline>
    <contour>
      <point x="543.758" y="913.5" type="curve" smooth="yes"/>
      <point x="748.327" y="913.548"/>
      <point x="961.55" y="1038.66"/>
      <point x="961.55" y="1263.45" type="curve" smooth="yes"/>
      <point x="961.55" y="1349.72"/>
      <point x="917.774" y="1415"/>
      <point x="838.926" y="1451.87" type="curve"/>
      <point x="947.982" y="1504.86"/>
      <point x="1022.48" y="1604.96"/>
      <point x="1022.48" y="1722.46" type="curve" smooth="yes"/>
      <point x="1022.48" y="1852.51"/>
      <point x="905.23" y="1919.58"/>
      <point x="778.51" y="1919.58" type="curve" smooth="yes"/>
      <point x="604.883" y="1919.58"/>
      <point x="419.342" y="1802.39"/>
      <point x="419.342" y="1613.66" type="curve" smooth="yes"/>
      <point x="419.342" y="1549.15"/>
      <point x="448.782" y="1492.83"/>
      <point x="501.518" y="1459.55" type="curve"/>
      <point x="355.854" y="1399.9"/>
      <point x="252.135" y="1287.77"/>
      <point x="252.174" y="1134.68" type="curve" smooth="yes"/>
      <point x="252.217" y="972.919"/>
      <point x="404.883" y="913.467"/>
    </contour>
    <contour>
      <point x="677.902" y="1495.39" type="curve" smooth="yes"/>
      <point x="597.774" y="1495.39"/>
      <point x="539.667" y="1532.76"/>
      <point x="539.662" y="1609.56" type="curve" smooth="yes"/>
      <point x="539.655" y="1725.21"/>
      <point x="656.911" y="1808.73"/>
      <point x="765.198" y="1808.73" type="curve" smooth="yes"/>
      <point x="843.022" y="1808.73"/>
      <point x="904.452" y="1772.89"/>
      <point x="904.462" y="1696.86" type="curve" smooth="yes"/>
      <point x="904.478" y="1580.56"/>
      <point x="787.53" y="1495.39"/>
    </contour>
    <contour>
      <point x="556.814" y="1020.25" type="curve" smooth="yes"/>
      <point x="472.826" y="1020.27"/>
      <point x="375.566" y="1058.46"/>
      <point x="375.566" y="1155.93" type="curve" smooth="yes"/>
      <point x="375.566" y="1305.53"/>
      <point x="525.03" y="1398.62"/>
      <point x="662.03" y="1398.62" type="curve" smooth="yes"/>
      <point x="754.446" y="1398.62"/>
      <point x="840.718" y="1354.59"/>
      <point x="840.718" y="1262.94" type="curve" smooth="yes"/>
      <point x="840.718" y="1116.92"/>
      <point x="692.425" y="1020.22"/>
    </contour>
  </outline>
</glyph>
<glyph name="nine.superior" format="2">
  <advance width="921"/>
  <unicode hex="2079"/>
  <outline>
    <contour>
      <point x="554.492" y="932.2" type="line"/>
      <point x="960.252" y="1420.14" type="line" smooth="yes"/>
      <point x="1017.4" y="1488.66"/>
      <point x="1052.67" y="1572.97"/>
      <point x="1052.67" y="1659.75" type="curve" smooth="yes"/>
      <point x="1052.67" y="1806.7"/>
      <point x="940.54" y="1914.22"/>
      <point x="785.148" y="1914.22" type="curve" smooth="yes"/>
      <point x="579.621" y="1914.22"/>
      <point x="370.899" y="1729.19"/>
      <point x="370.94" y="1519.17" type="curve" smooth="yes"/>
      <point x="370.97" y="1360.34"/>
      <point x="494.77" y="1272.73"/>
      <point x="665.215" y="1272.71" type="curve" smooth="yes"/>
      <point x="700.992" y="1272.7"/>
      <point x="737.692" y="1279.47"/>
      <point x="769.876" y="1291.95" type="curve"/>
      <point x="770.752" y="1344.75" type="line"/>
      <point x="420.86" y="932.2" type="line"/>
    </contour>
    <contour>
      <point x="660.988" y="1377.9" type="curve" smooth="yes"/>
      <point x="566.517" y="1377.92"/>
      <point x="491.004" y="1431.9"/>
      <point x="491.004" y="1531.5" type="curve" smooth="yes"/>
      <point x="491.004" y="1666.75"/>
      <point x="629.217" y="1800.81"/>
      <point x="765.692" y="1800.81" type="curve" smooth="yes"/>
      <point x="858.756" y="1800.81"/>
      <point x="932.354" y="1737.54"/>
      <point x="932.348" y="1641.06" type="curve" smooth="yes"/>
      <point x="932.34" y="1502.88"/>
      <point x="797.753" y="1377.85"/>
    </contour>
  </outline>
</glyph>
<glyph name="zero.inferior" format="2">
  <advance width="921"/>
  <unicode hex="2080"/>
  <outline>
    <contour>
      <point x="243.016" y="-486.408" type="curve" smooth="yes"/>
      <point x="550.636" y="-486.408"/>
      <point x="736.072" y="-88.129"/>
      <point x="736.072" y="178.424" type="curve" smooth="yes"/>
      <point x="736.072" y="357.611"/>
      <point x="658.035" y="521.72"/>
      <point x="458.312" y="521.72" type="curve" smooth="yes"/>
      <point x="143.287" y="521.72"/>
      <point x="-37.58" y="122.174"/>
      <point x="-37.56" y="-149" type="curve" smooth="yes"/>
      <point x="-37.546" y="-333.639"/>
      <point x="39.343" y="-486.408"/>
    </contour>
    <contour>
      <point x="254.28" y="-371.208" type="curve" smooth="yes"/>
      <point x="120.904" y="-371.208"/>
      <point x="82.789" y="-258.312"/>
      <point x="82.76" y="-141.832" type="curve" smooth="yes"/>
      <point x="82.713" y="49.676"/>
      <point x="209.537" y="402.424"/>
      <point x="440.648" y="402.424" type="curve" smooth="yes"/>
      <point x="569.16" y="402.424"/>
      <point x="606.539" y="288.248"/>
      <point x="606.536" y="176.632" type="curve" smooth="yes"/>
      <point x="606.531" y="-9.28703"/>
      <point x="480.73" y="-371.208"/>
    </contour>
  </outline>
</glyph>
<glyph name="three.inferior" format="2">
  <advance width="921"/>
  <unicode hex="2083"/>
  <outline>
    <contour>
      <point x="216.952" y="-486.408" type="curve" smooth="yes"/>
      <point x="424.133" y="-486.364"/>
      <point x="625.016" y="-350.432"/>
      <point x="625.016" y="-128.008" type="curve" smooth="yes"/>
      <point x="625.016" y="-40.2"/>
      <point x="585.336" y="19.704"/>
      <point x="504.952" y="49.912" type="curve"/>
      <point x="504.952" y="54.258" type="line"/>
      <point x="610.936" y="108.018"/>
      <point x="681.848" y="207.608"/>
      <point x="681.848" y="321.272" type="curve" smooth="yes"/>
      <point x="681.848" y="452.344"/>
      <point x="567.416" y="519.672"/>
      <point x="444.024" y="519.672" type="curve" smooth="yes"/>
      <point x="278.822" y="519.672"/>
      <point x="143.91" y="422.674"/>
      <point x="101.496" y="261.112" type="curve"/>
      <point x="202.104" y="243.192" type="line"/>
      <point x="228.08" y="342.895"/>
      <point x="324.954" y="406.52"/>
      <point x="425.592" y="406.52" type="curve" smooth="yes"/>
      <point x="497.528" y="406.52"/>
      <point x="562.552" y="368.12"/>
      <point x="562.552" y="295.928" type="curve" smooth="yes"/>
      <point x="562.552" y="166.184"/>
      <point x="452.176" y="101.888"/>
      <point x="337.473" y="102.297" type="curve"/>
      <point x="291.448" y="102.392" type="line"/>
      <point x="267.64" y="-10.248" type="line"/>
      <point x="347.256" y="-10.248" type="line" smooth="yes"/>
      <point x="434.04" y="-10.248"/>
      <point x="511.37" y="-51.72"/>
      <point x="511.352" y="-137.736" type="curve" smooth="yes"/>
      <point x="511.318" y="-282.002"/>
      <point x="365.378" y="-376.072"/>
      <point x="231.8" y="-376.072" type="curve" smooth="yes"/>
      <point x="140.152" y="-376.072"/>
      <point x="52.6" y="-330.248"/>
      <point x="52.6" y="-233.48" type="curve" smooth="yes"/>
      <point x="52.6" y="-217.096"/>
      <point x="54.648" y="-200.968"/>
      <point x="58.488" y="-185.096" type="curve"/>
      <point x="-57.224" y="-188.168" type="line"/>
      <point x="-62.856" y="-213"/>
      <point x="-66.952" y="-238.088"/>
      <point x="-66.952" y="-263.432" type="curve" smooth="yes"/>
      <point x="-66.952" y="-421.896"/>
      <point x="72.824" y="-486.444"/>
    </contour>
  </outline>
</glyph>
<glyph name="four.inferior" format="2">
  <advance width="921"/>
  <unicode hex="2084"/>
  <outline>
    <contour>
      <point x="432.2" y="-467.208" type="line"/>
      <point x="491.592" y="-213" type="line"/>
      <point x="645.96" y="-213" type="line"/>
      <point x="668.744" y="-104.456" type="line"/>
      <point x="517.448" y="-104.456" type="line"/>
      <point x="660.808" y="500.472" type="line"/>
      <point x="551.24" y="500.472" type="line"/>
      <point x="-67.256" y="-141.576" type="line"/>
      <point x="-81.848" y="-213" type="line"/>
      <point x="368.968" y="-213" type="line"/>
      <point x="309.576" y="-467.208" type="line"/>
    </contour>
    <contour>
      <point x="394.824" y="-104.456" type="line"/>
      <point x="86.6" y="-104.456" type="line"/>
      <point x="496.2" y="325.624" type="line"/>
    </contour>
  </outline>
</glyph>
<glyph name="six.inferior" format="2">
  <advance width="921"/>
  <unicode hex="2086"/>
  <outline>
    <contour>
      <point x="228.056" y="-480.52" type="curve" smooth="yes"/>
      <point x="431.007" y="-480.512"/>
      <point x="642.264" y="-294.452"/>
      <point x="642.264" y="-85.768" type="curve" smooth="yes"/>
      <point x="642.264" y="72.645"/>
      <point x="528.359" y="158.968"/>
      <point x="374.471" y="158.968" type="curve" smooth="yes"/>
      <point x="344.104" y="158.968"/>
      <point x="314.897" y="156.05"/>
      <point x="286.706" y="149.402" type="curve"/>
      <point x="593.624" y="500.472" type="line"/>
      <point x="459.48" y="500.472" type="line"/>
      <point x="53.72" y="13.304" type="line" smooth="yes"/>
      <point x="-3.501" y="-55.286"/>
      <point x="-40.23" y="-141.064"/>
      <point x="-40.232" y="-226.056" type="curve" smooth="yes"/>
      <point x="-40.238" y="-379.474"/>
      <point x="79.016" y="-480.526"/>
    </contour>
    <contour>
      <point x="244.44" y="-367.368" type="curve" smooth="yes"/>
      <point x="152.01" y="-367.368"/>
      <point x="80.856" y="-300.946"/>
      <point x="80.856" y="-207.368" type="curve" smooth="yes"/>
      <point x="80.856" y="-66.624"/>
      <point x="217.023" y="54.748"/>
      <point x="356.056" y="54.776" type="curve" smooth="yes"/>
      <point x="448.313" y="54.792"/>
      <point x="521.176" y="-2.28501"/>
      <point x="521.176" y="-98.568" type="curve" smooth="yes"/>
      <point x="521.176" y="-237.48"/>
      <point x="381.442" y="-367.368"/>
    </contour>
  </outline>
</glyph>
<glyph name="seven.inferior" format="2">
  <advance width="921"/>
  <unicode hex="2087"/>
  <outline>
    <contour>
      <point x="152.664" y="-467.208" type="line"/>
      <point x="780.376" y="438.008" type="line"/>
      <point x="793.176" y="500.472" type="line"/>
      <point x="144.472" y="500.472" type="line"/>
      <point x="121.688" y="390.136" type="line"/>
      <point x="635.992" y="390.136" type="line"/>
      <point x="24.152" y="-467.208" type="line"/>
    </contour>
  </outline>
</glyph>
<glyph name="eight.inferior" format="2">
  <advance width="921"/>
  <unicode hex="2088"/>
  <outline>
    <contour>
      <point x="228.992" y="-486.408" type="curve" smooth="yes"/>
      <point x="433.561" y="-486.361"/>
      <point x="646.784" y="-361.253"/>
      <point x="646.784" y="-136.456" type="curve" smooth="yes"/>
      <point x="646.784" y="-50.184"/>
      <point x="603.008" y="15.096"/>
      <point x="524.16" y="51.96" type="curve"/>
      <point x="633.216" y="104.952"/>
      <point x="707.712" y="205.048"/>
      <point x="707.712" y="322.552" type="curve" smooth="yes"/>
      <point x="707.712" y="452.6"/>
      <point x="590.464" y="519.672"/>
      <point x="463.744" y="519.672" type="curve" smooth="yes"/>
      <point x="290.117" y="519.672"/>
      <point x="104.576" y="402.48"/>
      <point x="104.576" y="213.752" type="curve" smooth="yes"/>
      <point x="104.576" y="149.24"/>
      <point x="134.016" y="92.92"/>
      <point x="186.752" y="59.64" type="curve"/>
      <point x="41.088" y="-0.00801557"/>
      <point x="-62.625" y="-112.136"/>
      <point x="-62.592" y="-265.224" type="curve" smooth="yes"/>
      <point x="-62.543" y="-426.989"/>
      <point x="90.117" y="-486.442"/>
    </contour>
    <contour>
      <point x="363.136" y="95.48" type="curve" smooth="yes"/>
      <point x="283.008" y="95.48"/>
      <point x="224.9" y="132.856"/>
      <point x="224.896" y="209.656" type="curve" smooth="yes"/>
      <point x="224.888" y="325.303"/>
      <point x="342.145" y="408.824"/>
      <point x="450.432" y="408.824" type="curve" smooth="yes"/>
      <point x="528.256" y="408.824"/>
      <point x="589.687" y="372.984"/>
      <point x="589.696" y="296.952" type="curve" smooth="yes"/>
      <point x="589.713" y="180.647"/>
      <point x="472.764" y="95.48"/>
    </contour>
    <contour>
      <point x="242.048" y="-379.656" type="curve" smooth="yes"/>
      <point x="158.06" y="-379.636"/>
      <point x="60.8" y="-341.446"/>
      <point x="60.8" y="-243.976" type="curve" smooth="yes"/>
      <point x="60.8" y="-94.375"/>
      <point x="210.264" y="-1.28801"/>
      <point x="347.264" y="-1.28801" type="curve" smooth="yes"/>
      <point x="439.68" y="-1.28801"/>
      <point x="525.952" y="-45.32"/>
      <point x="525.952" y="-136.968" type="curve" smooth="yes"/>
      <point x="525.952" y="-282.992"/>
      <point x="377.659" y="-379.69"/>
    </contour>
  </outline>
</glyph>
<glyph name="brevecomb_gravecomb.case" format="2">
  <anchor x="-466" y="1191.98" name="_top"/>
  <outline>
    <contour>
      <point x="-399.534" y="1191.94" type="curve" smooth="yes"/>
      <point x="-212.398" y="1191.94"/>
      <point x="-84.5582" y="1256.79"/>
      <point x="-56.3037" y="1375.24" type="curve"/>
      <point x="-193.008" y="1375.24" type="line"/>
      <point x="-210.946" y="1312.09"/>
      <point x="-310.213" y="1270.11"/>
      <point x="-404.677" y="1270.11" type="curve" smooth="yes"/>
      <point x="-481.989" y="1270.11"/>
      <point x="-539.81" y="1296.56"/>
      <point x="-545.263" y="1348.45" type="curve" smooth="yes"/>
      <point x="-546.088" y="1356.3"/>
      <point x="-545.247" y="1365.34"/>
      <point x="-543.216" y="1375.24" type="curve"/>
      <point x="-679.92" y="1375.24" type="line"/>
      <point x="-683.883" y="1359.37"/>
      <point x="-685.431" y="1344.86"/>
      <point x="-683.834" y="1329.67" type="curve" smooth="yes"/>
      <point x="-673.717" y="1233.41"/>
      <point x="-546.99" y="1191.94"/>
    </contour>
    <contour>
      <point x="-308.118" y="1375.17" type="line"/>
      <point x="-486.856" y="1575.37" type="line"/>
      <point x="-679.112" y="1575.37" type="line"/>
      <point x="-444.822" y="1375.17" type="line"/>
    </contour>
  </outline>
</glyph>
<glyph name="brevecomb_hookabovecomb.case" format="2">
  <anchor x="-446" y="1191.98" name="_top"/>
  <outline>
    <contour>
      <point x="-399.534" y="1191.94" type="curve" smooth="yes"/>
      <point x="-212.398" y="1191.94"/>
      <point x="-84.5582" y="1256.79"/>
      <point x="-56.3037" y="1375.24" type="curve"/>
      <point x="-193.008" y="1375.24" type="line"/>
      <point x="-210.946" y="1312.09"/>
      <point x="-310.213" y="1270.11"/>
      <point x="-404.677" y="1270.11" type="curve" smooth="yes"/>
      <point x="-481.989" y="1270.11"/>
      <point x="-539.81" y="1296.56"/>
      <point x="-545.263" y="1348.45" type="curve" smooth="yes"/>
      <point x="-546.088" y="1356.3"/>
      <point x="-545.247" y="1365.34"/>
      <point x="-543.216" y="1375.24" type="curve"/>
      <point x="-679.92" y="1375.24" type="line"/>
      <point x="-683.883" y="1359.37"/>
      <point x="-685.431" y="1344.86"/>
      <point x="-683.834" y="1329.67" type="curve" smooth="yes"/>
      <point x="-673.717" y="1233.41"/>
      <point x="-546.99" y="1191.94"/>
    </contour>
    <contour>
      <point x="-464.735" y="1329.66" type="line"/>
      <point x="-314.757" y="1347.07"/>
      <point x="-169.124" y="1376.59"/>
      <point x="-180.569" y="1485.48" type="curve" smooth="yes"/>
      <point x="-190.776" y="1582.6"/>
      <point x="-362.197" y="1599.77"/>
      <point x="-478.165" y="1599.77" type="curve" smooth="yes"/>
      <point x="-499.131" y="1599.77" type="line"/>
      <point x="-511.359" y="1528.91" type="line"/>
      <point x="-445.996" y="1528.91" type="line" smooth="yes"/>
      <point x="-382.18" y="1528.91"/>
      <point x="-305.815" y="1512.87"/>
      <point x="-301.036" y="1467.39" type="curve" smooth="yes"/>
      <point x="-295.816" y="1417.73"/>
      <point x="-387.814" y="1389.39"/>
      <point x="-476.76" y="1378.3" type="curve"/>
    </contour>
  </outline>
</glyph>
<glyph name="circumflexcomb_acutecomb.case" format="2">
  <anchor x="-473" y="1191.98" name="_top"/>
  <outline>
    <contour>
      <point x="-79.2675" y="1191.94" type="line"/>
      <point x="-355.715" y="1432.76" type="line"/>
      <point x="-745.892" y="1191.94" type="line"/>
      <point x="-576.164" y="1191.94" type="line"/>
      <point x="-374.987" y="1316.53" type="line"/>
      <point x="-238.756" y="1191.94" type="line"/>
    </contour>
    <contour>
      <point x="-48.3084" y="1337.28" type="line"/>
      <point x="215.153" y="1486.83" type="line"/>
      <point x="10.0972" y="1486.83" type="line"/>
      <point x="-191.412" y="1337.28" type="line"/>
    </contour>
  </outline>
  <guideline angle="0" x="0" y="1491.99"/>
  <guideline angle="214.815" x="46" y="1547.33"/>
  <guideline angle="0" x="0" y="1337.32"/>
</glyph>
<glyph name="dieresiscomb_gravecomb.case" format="2">
  <anchor x="-492" y="1192.25" name="_top"/>
  <outline>
    <contour>
      <point x="-498.113" y="1192.75" type="line"/>
      <point x="-465.988" y="1324.76" type="line"/>
      <point x="-640.738" y="1324.76" type="line"/>
      <point x="-672.113" y="1192.75" type="line"/>
    </contour>
    <contour>
      <point x="-150.613" y="1192.75" type="line"/>
      <point x="-118.488" y="1324.76" type="line"/>
      <point x="-293.238" y="1324.76" type="line"/>
      <point x="-324.613" y="1192.75" type="line"/>
    </contour>
    <contour>
      <point x="-315.4" y="1361.88" type="line"/>
      <point x="-494.138" y="1562.08" type="line"/>
      <point x="-686.394" y="1562.08" type="line"/>
      <point x="-452.104" y="1361.88" type="line"/>
    </contour>
  </outline>
</glyph>
<glyph name="dieresiscomb_macroncomb.case" format="2">
  <anchor x="-462" y="1192.25" name="_top"/>
  <outline>
    <contour>
      <point x="-498.113" y="1192.75" type="line"/>
      <point x="-465.988" y="1324.76" type="line"/>
      <point x="-640.738" y="1324.76" type="line"/>
      <point x="-672.113" y="1192.75" type="line"/>
    </contour>
    <contour>
      <point x="-150.613" y="1192.75" type="line"/>
      <point x="-118.488" y="1324.76" type="line"/>
      <point x="-293.238" y="1324.76" type="line"/>
      <point x="-324.613" y="1192.75" type="line"/>
    </contour>
    <contour>
      <point x="-647.582" y="1384.09" type="line"/>
      <point x="-93.3317" y="1384.09" type="line"/>
      <point x="-72.301" y="1469.43" type="line"/>
      <point x="-626.301" y="1469.43" type="line"/>
    </contour>
  </outline>
</glyph>
<glyph name="eight.dnom" format="2">
  <advance width="921"/>
  <outline>
    <contour>
      <point x="333.734" y="-5.28107" type="curve" smooth="yes"/>
      <point x="538.303" y="-5.23407"/>
      <point x="751.526" y="119.874"/>
      <point x="751.526" y="344.671" type="curve" smooth="yes"/>
      <point x="751.526" y="430.943"/>
      <point x="707.75" y="496.223"/>
      <point x="628.902" y="533.087" type="curve"/>
      <point x="737.958" y="586.079"/>
      <point x="812.454" y="686.175"/>
      <point x="812.454" y="803.679" type="curve" smooth="yes"/>
      <point x="812.454" y="933.727"/>
      <point x="695.206" y="1000.8"/>
      <point x="568.486" y="1000.8" type="curve" smooth="yes"/>
      <point x="394.859" y="1000.8"/>
      <point x="209.318" y="883.607"/>
      <point x="209.318" y="694.879" type="curve" smooth="yes"/>
      <point x="209.318" y="630.367"/>
      <point x="238.758" y="574.047"/>
      <point x="291.494" y="540.767" type="curve"/>
      <point x="145.83" y="481.119"/>
      <point x="42.117" y="368.991"/>
      <point x="42.15" y="215.903" type="curve" smooth="yes"/>
      <point x="42.199" y="54.1379"/>
      <point x="194.859" y="-5.31506"/>
    </contour>
    <contour>
      <point x="467.878" y="576.607" type="curve" smooth="yes"/>
      <point x="387.75" y="576.607"/>
      <point x="329.642" y="613.983"/>
      <point x="329.638" y="690.783" type="curve" smooth="yes"/>
      <point x="329.63" y="806.43"/>
      <point x="446.887" y="889.951"/>
      <point x="555.174" y="889.951" type="curve" smooth="yes"/>
      <point x="632.998" y="889.951"/>
      <point x="694.429" y="854.111"/>
      <point x="694.438" y="778.079" type="curve" smooth="yes"/>
      <point x="694.455" y="661.774"/>
      <point x="577.506" y="576.607"/>
    </contour>
    <contour>
      <point x="346.79" y="101.471" type="curve" smooth="yes"/>
      <point x="262.802" y="101.491"/>
      <point x="165.542" y="139.681"/>
      <point x="165.542" y="237.151" type="curve" smooth="yes"/>
      <point x="165.542" y="386.752"/>
      <point x="315.006" y="479.839"/>
      <point x="452.006" y="479.839" type="curve" smooth="yes"/>
      <point x="544.422" y="479.839"/>
      <point x="630.694" y="435.807"/>
      <point x="630.694" y="344.159" type="curve" smooth="yes"/>
      <point x="630.694" y="198.135"/>
      <point x="482.401" y="101.437"/>
    </contour>
  </outline>
</glyph>
<glyph name="eight.numr" format="2">
  <advance width="921"/>
  <outline>
    <contour>
      <point x="443.678" y="445.579" type="curve" smooth="yes"/>
      <point x="648.247" y="445.626"/>
      <point x="861.47" y="570.734"/>
      <point x="861.47" y="795.531" type="curve" smooth="yes"/>
      <point x="861.47" y="881.803"/>
      <point x="817.694" y="947.083"/>
      <point x="738.846" y="983.947" type="curve"/>
      <point x="847.902" y="1036.94"/>
      <point x="922.398" y="1137.03"/>
      <point x="922.398" y="1254.54" type="curve" smooth="yes"/>
      <point x="922.398" y="1384.59"/>
      <point x="805.15" y="1451.66"/>
      <point x="678.43" y="1451.66" type="curve" smooth="yes"/>
      <point x="504.803" y="1451.66"/>
      <point x="319.262" y="1334.47"/>
      <point x="319.262" y="1145.74" type="curve" smooth="yes"/>
      <point x="319.262" y="1081.23"/>
      <point x="348.702" y="1024.91"/>
      <point x="401.438" y="991.627" type="curve"/>
      <point x="255.774" y="931.979"/>
      <point x="152.061" y="819.851"/>
      <point x="152.094" y="666.763" type="curve" smooth="yes"/>
      <point x="152.143" y="504.998"/>
      <point x="304.803" y="445.545"/>
    </contour>
    <contour>
      <point x="577.822" y="1027.47" type="curve" smooth="yes"/>
      <point x="497.694" y="1027.47"/>
      <point x="439.586" y="1064.84"/>
      <point x="439.582" y="1141.64" type="curve" smooth="yes"/>
      <point x="439.574" y="1257.29"/>
      <point x="556.831" y="1340.81"/>
      <point x="665.118" y="1340.81" type="curve" smooth="yes"/>
      <point x="742.942" y="1340.81"/>
      <point x="804.373" y="1304.97"/>
      <point x="804.382" y="1228.94" type="curve" smooth="yes"/>
      <point x="804.399" y="1112.63"/>
      <point x="687.45" y="1027.47"/>
    </contour>
    <contour>
      <point x="456.734" y="552.331" type="curve" smooth="yes"/>
      <point x="372.746" y="552.351"/>
      <point x="275.486" y="590.541"/>
      <point x="275.486" y="688.011" type="curve" smooth="yes"/>
      <point x="275.486" y="837.612"/>
      <point x="424.95" y="930.699"/>
      <point x="561.95" y="930.699" type="curve" smooth="yes"/>
      <point x="654.366" y="930.699"/>
      <point x="740.638" y="886.667"/>
      <point x="740.638" y="795.019" type="curve" smooth="yes"/>
      <point x="740.638" y="648.995"/>
      <point x="592.345" y="552.297"/>
    </contour>
  </outline>
</glyph>
<glyph name="five.numr" format="2">
  <advance width="921"/>
  <outline>
    <contour>
      <point x="451.377" y="465.656" type="curve" smooth="yes"/>
      <point x="695.875" y="465.666"/>
      <point x="855.148" y="618.04"/>
      <point x="855.196" y="855.631" type="curve" smooth="yes"/>
      <point x="855.227" y="1014.02"/>
      <point x="748.517" y="1117.18"/>
      <point x="586.744" y="1117.18" type="curve" smooth="yes"/>
      <point x="508.331" y="1117.18"/>
      <point x="442.456" y="1094.2"/>
      <point x="386.04" y="1047.03" type="curve"/>
      <point x="503.118" y="1336.57" type="line"/>
      <point x="913.656" y="1336.57" type="line"/>
      <point x="936.44" y="1446.65" type="line"/>
      <point x="441.08" y="1446.65" type="line"/>
      <point x="239.608" y="953.08" type="line"/>
      <point x="334.072" y="907.768" type="line"/>
      <point x="389.532" y="971.827"/>
      <point x="472.42" y="1010.42"/>
      <point x="554.488" y="1010.42" type="curve" smooth="yes"/>
      <point x="665.279" y="1010.42"/>
      <point x="731.305" y="950.109"/>
      <point x="731.292" y="847.183" type="curve" smooth="yes"/>
      <point x="731.267" y="688.108"/>
      <point x="612.704" y="573.461"/>
      <point x="465.102" y="573.449" type="curve" smooth="yes"/>
      <point x="366.241" y="573.441"/>
      <point x="291.404" y="643.798"/>
      <point x="276.789" y="765.899" type="curve"/>
      <point x="163.858" y="744.782" type="line"/>
      <point x="179.874" y="572.206"/>
      <point x="302.779" y="465.65"/>
    </contour>
  </outline>
</glyph>
<glyph name="four.dnom" format="2">
  <advance width="921"/>
  <outline>
    <contour>
      <point x="568.101" y="-1" type="line"/>
      <point x="627.493" y="253.208" type="line"/>
      <point x="781.861" y="253.208" type="line"/>
      <point x="804.645" y="361.752" type="line"/>
      <point x="653.349" y="361.752" type="line"/>
      <point x="796.709" y="966.68" type="line"/>
      <point x="687.141" y="966.68" type="line"/>
      <point x="68.6452" y="324.632" type="line"/>
      <point x="54.0532" y="253.208" type="line"/>
      <point x="504.869" y="253.208" type="line"/>
      <point x="445.477" y="-1" type="line"/>
    </contour>
    <contour>
      <point x="530.725" y="361.752" type="line"/>
      <point x="222.501" y="361.752" type="line"/>
      <point x="632.101" y="791.832" type="line"/>
    </contour>
  </outline>
</glyph>
<glyph name="four.numr" format="2">
  <advance width="921"/>
  <outline>
    <contour>
      <point x="678.142" y="479.265" type="line"/>
      <point x="737.534" y="733.473" type="line"/>
      <point x="891.902" y="733.473" type="line"/>
      <point x="914.686" y="842.017" type="line"/>
      <point x="763.39" y="842.017" type="line"/>
      <point x="906.75" y="1446.94" type="line"/>
      <point x="797.182" y="1446.94" type="line"/>
      <point x="178.686" y="804.897" type="line"/>
      <point x="164.094" y="733.473" type="line"/>
      <point x="614.91" y="733.473" type="line"/>
      <point x="555.518" y="479.265" type="line"/>
    </contour>
    <contour>
      <point x="640.766" y="842.017" type="line"/>
      <point x="332.542" y="842.017" type="line"/>
      <point x="742.142" y="1272.1" type="line"/>
    </contour>
  </outline>
</glyph>
<glyph name="nine.numr" format="2">
  <advance width="921"/>
  <outline>
    <contour>
      <point x="693.838" y="1451.96" type="curve" smooth="yes"/>
      <point x="490.887" y="1451.95"/>
      <point x="279.63" y="1265.89"/>
      <point x="279.63" y="1057.2" type="curve" smooth="yes"/>
      <point x="279.63" y="898.791"/>
      <point x="393.535" y="812.468"/>
      <point x="547.423" y="812.468" type="curve" smooth="yes"/>
      <point x="577.79" y="812.468"/>
      <point x="606.997" y="815.386"/>
      <point x="635.188" y="822.034" type="curve"/>
      <point x="328.27" y="470.964" type="line"/>
      <point x="462.414" y="470.964" type="line"/>
      <point x="868.174" y="958.132" type="line" smooth="yes"/>
      <point x="925.34" y="1026.77"/>
      <point x="962.123" y="1112.5"/>
      <point x="962.126" y="1197.49" type="curve" smooth="yes"/>
      <point x="962.131" y="1350.91"/>
      <point x="842.878" y="1451.96"/>
    </contour>
    <contour>
      <point x="677.454" y="1338.8" type="curve" smooth="yes"/>
      <point x="769.884" y="1338.8"/>
      <point x="841.038" y="1272.38"/>
      <point x="841.038" y="1178.8" type="curve" smooth="yes"/>
      <point x="841.038" y="1038.06"/>
      <point x="704.871" y="916.686"/>
      <point x="565.838" y="916.66" type="curve" smooth="yes"/>
      <point x="473.581" y="916.642"/>
      <point x="400.718" y="973.721"/>
      <point x="400.718" y="1070" type="curve" smooth="yes"/>
      <point x="400.718" y="1208.92"/>
      <point x="540.452" y="1338.8"/>
    </contour>
  </outline>
</glyph>
<glyph name="ringcomb_acutecomb.case" format="2">
  <anchor x="-333" y="1382" name="_top"/>
  <outline>
    <contour>
      <point x="-297.964" y="1191.94" type="curve" smooth="yes"/>
      <point x="-167.404" y="1191.94"/>
      <point x="-57.6573" y="1270.62"/>
      <point x="-66.7881" y="1357.49" type="curve" smooth="yes"/>
      <point x="-73.8021" y="1424.22"/>
      <point x="-156.685" y="1472.36"/>
      <point x="-255.757" y="1472.36" type="curve" smooth="yes"/>
      <point x="-384.781" y="1472.36"/>
      <point x="-496.539" y="1393.33"/>
      <point x="-487.462" y="1306.97" type="curve" smooth="yes"/>
      <point x="-480.107" y="1236.99"/>
      <point x="-400.364" y="1191.94"/>
    </contour>
    <contour>
      <point x="-294.674" y="1262.94" type="curve" smooth="yes"/>
      <point x="-346.13" y="1262.94"/>
      <point x="-375.621" y="1282.91"/>
      <point x="-379.209" y="1317.04" type="curve" smooth="yes"/>
      <point x="-384.178" y="1364.32"/>
      <point x="-330.726" y="1401.35"/>
      <point x="-260.07" y="1401.35" type="curve" smooth="yes"/>
      <point x="-212.198" y="1401.35"/>
      <point x="-174.933" y="1382.92"/>
      <point x="-171.489" y="1350.15" type="curve" smooth="yes"/>
      <point x="-166.843" y="1305.95"/>
      <point x="-224.53" y="1262.94"/>
    </contour>
    <contour>
      <point x="-176.001" y="1531.92" type="line"/>
      <point x="145.434" y="1725.3" type="line"/>
      <point x="-59.6219" y="1725.3" type="line"/>
      <point x="-319.105" y="1531.92" type="line"/>
    </contour>
  </outline>
</glyph>
<glyph name="seven.dnom" format="2">
  <advance width="870"/>
  <outline>
    <contour>
      <point x="235.49" y="0.5" type="line"/>
      <point x="863.202" y="905.716" type="line"/>
      <point x="876.002" y="968.18" type="line"/>
      <point x="227.298" y="968.18" type="line"/>
      <point x="204.514" y="857.844" type="line"/>
      <point x="718.818" y="857.844" type="line"/>
      <point x="106.978" y="0.500011" type="line"/>
    </contour>
  </outline>
</glyph>
<glyph name="seven.numr" format="2">
  <advance width="870"/>
  <outline>
    <contour>
      <point x="329.978" y="479.271" type="line"/>
      <point x="957.69" y="1384.49" type="line"/>
      <point x="970.49" y="1446.95" type="line"/>
      <point x="321.786" y="1446.95" type="line"/>
      <point x="299.002" y="1336.61" type="line"/>
      <point x="813.306" y="1336.61" type="line"/>
      <point x="201.466" y="479.271" type="line"/>
    </contour>
  </outline>
</glyph>
<glyph name="six.numr" format="2">
  <advance width="921"/>
  <outline>
    <contour>
      <point x="469.162" y="465.964" type="curve" smooth="yes"/>
      <point x="672.113" y="465.972"/>
      <point x="883.37" y="652.032"/>
      <point x="883.37" y="860.716" type="curve" smooth="yes"/>
      <point x="883.37" y="1019.13"/>
      <point x="769.465" y="1105.45"/>
      <point x="615.577" y="1105.45" type="curve" smooth="yes"/>
      <point x="585.21" y="1105.45"/>
      <point x="556.003" y="1102.53"/>
      <point x="527.812" y="1095.89" type="curve"/>
      <point x="834.73" y="1446.96" type="line"/>
      <point x="700.586" y="1446.96" type="line"/>
      <point x="294.826" y="959.788" type="line" smooth="yes"/>
      <point x="237.605" y="891.198"/>
      <point x="200.876" y="805.42"/>
      <point x="200.874" y="720.428" type="curve" smooth="yes"/>
      <point x="200.868" y="567.01"/>
      <point x="320.122" y="465.958"/>
    </contour>
    <contour>
      <point x="485.546" y="579.116" type="curve" smooth="yes"/>
      <point x="393.116" y="579.116"/>
      <point x="321.962" y="645.538"/>
      <point x="321.962" y="739.116" type="curve" smooth="yes"/>
      <point x="321.962" y="879.86"/>
      <point x="458.129" y="1001.23"/>
      <point x="597.162" y="1001.26" type="curve" smooth="yes"/>
      <point x="689.419" y="1001.28"/>
      <point x="762.282" y="944.199"/>
      <point x="762.282" y="847.916" type="curve" smooth="yes"/>
      <point x="762.282" y="709.004"/>
      <point x="622.548" y="579.116"/>
    </contour>
  </outline>
</glyph>
<glyph name="three.dnom" format="2">
  <advance width="921"/>
  <outline>
    <contour>
      <point x="370.202" y="-4.6059" type="curve" smooth="yes"/>
      <point x="577.383" y="-4.5619"/>
      <point x="778.266" y="131.37"/>
      <point x="778.266" y="353.794" type="curve" smooth="yes"/>
      <point x="778.266" y="441.602"/>
      <point x="738.586" y="501.506"/>
      <point x="658.202" y="531.714" type="curve"/>
      <point x="658.202" y="536.06" type="line"/>
      <point x="764.186" y="589.82"/>
      <point x="835.098" y="689.41"/>
      <point x="835.098" y="803.074" type="curve" smooth="yes"/>
      <point x="835.098" y="934.146"/>
      <point x="720.666" y="1001.47"/>
      <point x="597.274" y="1001.47" type="curve" smooth="yes"/>
      <point x="432.072" y="1001.47"/>
      <point x="297.16" y="904.476"/>
      <point x="254.746" y="742.914" type="curve"/>
      <point x="355.354" y="724.994" type="line"/>
      <point x="381.33" y="824.697"/>
      <point x="478.204" y="888.322"/>
      <point x="578.842" y="888.322" type="curve" smooth="yes"/>
      <point x="650.778" y="888.322"/>
      <point x="715.802" y="849.922"/>
      <point x="715.802" y="777.73" type="curve" smooth="yes"/>
      <point x="715.802" y="647.986"/>
      <point x="605.426" y="583.69"/>
      <point x="490.723" y="584.099" type="curve"/>
      <point x="444.698" y="584.194" type="line"/>
      <point x="420.89" y="471.554" type="line"/>
      <point x="500.506" y="471.554" type="line" smooth="yes"/>
      <point x="587.29" y="471.554"/>
      <point x="664.62" y="430.082"/>
      <point x="664.602" y="344.066" type="curve" smooth="yes"/>
      <point x="664.568" y="199.8"/>
      <point x="518.628" y="105.73"/>
      <point x="385.05" y="105.73" type="curve" smooth="yes"/>
      <point x="293.402" y="105.73"/>
      <point x="205.85" y="151.554"/>
      <point x="205.85" y="248.322" type="curve" smooth="yes"/>
      <point x="205.85" y="264.706"/>
      <point x="207.898" y="280.834"/>
      <point x="211.738" y="296.706" type="curve"/>
      <point x="96.0259" y="293.634" type="line"/>
      <point x="90.3939" y="268.802"/>
      <point x="86.2979" y="243.714"/>
      <point x="86.2979" y="218.37" type="curve" smooth="yes"/>
      <point x="86.2979" y="59.9061"/>
      <point x="226.074" y="-4.64189"/>
    </contour>
  </outline>
</glyph>
<glyph name="three.numr" format="2">
  <advance width="921"/>
  <outline>
    <contour>
      <point x="464.136" y="445.538" type="curve" smooth="yes"/>
      <point x="671.317" y="445.582"/>
      <point x="872.2" y="581.514"/>
      <point x="872.2" y="803.938" type="curve" smooth="yes"/>
      <point x="872.2" y="891.746"/>
      <point x="832.52" y="951.65"/>
      <point x="752.136" y="981.858" type="curve"/>
      <point x="752.136" y="986.204" type="line"/>
      <point x="858.12" y="1039.96"/>
      <point x="929.032" y="1139.55"/>
      <point x="929.032" y="1253.22" type="curve" smooth="yes"/>
      <point x="929.032" y="1384.29"/>
      <point x="814.6" y="1451.62"/>
      <point x="691.208" y="1451.62" type="curve" smooth="yes"/>
      <point x="526.006" y="1451.62"/>
      <point x="391.094" y="1354.62"/>
      <point x="348.68" y="1193.06" type="curve"/>
      <point x="449.288" y="1175.14" type="line"/>
      <point x="475.264" y="1274.84"/>
      <point x="572.138" y="1338.47"/>
      <point x="672.776" y="1338.47" type="curve" smooth="yes"/>
      <point x="744.712" y="1338.47"/>
      <point x="809.736" y="1300.07"/>
      <point x="809.736" y="1227.87" type="curve" smooth="yes"/>
      <point x="809.736" y="1098.13"/>
      <point x="699.36" y="1033.83"/>
      <point x="584.657" y="1034.24" type="curve"/>
      <point x="538.632" y="1034.34" type="line"/>
      <point x="514.824" y="921.698" type="line"/>
      <point x="594.44" y="921.698" type="line" smooth="yes"/>
      <point x="681.224" y="921.698"/>
      <point x="758.554" y="880.226"/>
      <point x="758.536" y="794.21" type="curve" smooth="yes"/>
      <point x="758.502" y="649.944"/>
      <point x="612.562" y="555.874"/>
      <point x="478.984" y="555.874" type="curve" smooth="yes"/>
      <point x="387.336" y="555.874"/>
      <point x="299.784" y="601.698"/>
      <point x="299.784" y="698.466" type="curve" smooth="yes"/>
      <point x="299.784" y="714.85"/>
      <point x="301.832" y="730.978"/>
      <point x="305.672" y="746.85" type="curve"/>
      <point x="189.96" y="743.778" type="line"/>
      <point x="184.328" y="718.946"/>
      <point x="180.232" y="693.858"/>
      <point x="180.232" y="668.514" type="curve" smooth="yes"/>
      <point x="180.232" y="510.05"/>
      <point x="320.008" y="445.502"/>
    </contour>
  </outline>
</glyph>
<glyph name="zero.dnom" format="2">
  <advance width="921"/>
  <outline>
    <contour>
      <point x="368.752" y="-5.72559" type="curve" smooth="yes"/>
      <point x="676.372" y="-5.72559"/>
      <point x="861.808" y="392.553"/>
      <point x="861.808" y="659.106" type="curve" smooth="yes"/>
      <point x="861.808" y="838.293"/>
      <point x="783.771" y="1002.4"/>
      <point x="584.048" y="1002.4" type="curve" smooth="yes"/>
      <point x="269.023" y="1002.4"/>
      <point x="88.1558" y="602.856"/>
      <point x="88.1758" y="331.682" type="curve" smooth="yes"/>
      <point x="88.1898" y="147.043"/>
      <point x="165.079" y="-5.7256"/>
    </contour>
    <contour>
      <point x="380.016" y="109.474" type="curve" smooth="yes"/>
      <point x="246.64" y="109.474"/>
      <point x="208.525" y="222.37"/>
      <point x="208.496" y="338.85" type="curve" smooth="yes"/>
      <point x="208.449" y="530.358"/>
      <point x="335.273" y="883.106"/>
      <point x="566.384" y="883.106" type="curve" smooth="yes"/>
      <point x="694.896" y="883.106"/>
      <point x="732.275" y="768.93"/>
      <point x="732.272" y="657.314" type="curve" smooth="yes"/>
      <point x="732.267" y="471.395"/>
      <point x="606.466" y="109.474"/>
    </contour>
  </outline>
</glyph>
<glyph name="zero.numr" format="2">
  <advance width="921"/>
  <outline>
    <contour>
      <point x="474.181" y="443.517" type="curve" smooth="yes"/>
      <point x="781.801" y="443.517"/>
      <point x="967.237" y="841.796"/>
      <point x="967.237" y="1108.35" type="curve" smooth="yes"/>
      <point x="967.237" y="1287.54"/>
      <point x="889.2" y="1451.65"/>
      <point x="689.477" y="1451.65" type="curve" smooth="yes"/>
      <point x="374.452" y="1451.65"/>
      <point x="193.585" y="1052.1"/>
      <point x="193.605" y="780.925" type="curve" smooth="yes"/>
      <point x="193.619" y="596.286"/>
      <point x="270.508" y="443.517"/>
    </contour>
    <contour>
      <point x="485.445" y="558.717" type="curve" smooth="yes"/>
      <point x="352.069" y="558.717"/>
      <point x="313.954" y="671.613"/>
      <point x="313.925" y="788.093" type="curve" smooth="yes"/>
      <point x="313.878" y="979.601"/>
      <point x="440.702" y="1332.35"/>
      <point x="671.813" y="1332.35" type="curve" smooth="yes"/>
      <point x="800.325" y="1332.35"/>
      <point x="837.704" y="1218.17"/>
      <point x="837.701" y="1106.56" type="curve" smooth="yes"/>
      <point x="837.696" y="920.638"/>
      <point x="711.895" y="558.717"/>
    </contour>
  </outline>
</glyph>
